<svg width="249" height="79" viewBox="0 0 249 79" fill="none" xmlns="http://www.w3.org/2000/svg">
<path d="M22.198 78.536C17.5047 78.536 13.494 77.9813 10.166 76.872C6.83801 75.7627 4.44868 73.5013 2.99801 70.088C1.54735 66.6747 1.29135 61.5973 2.23001 54.856L7.47801 17.48C8.07535 13.2133 9.52601 9.84266 11.83 7.368C14.134 4.808 17.1207 2.97333 20.79 1.864C24.4593 0.754664 28.598 0.199997 33.206 0.199997C37.8993 0.199997 41.8247 0.754664 44.982 1.864C48.1393 2.97333 50.4433 4.808 51.894 7.368C53.3447 9.84266 53.7713 13.2133 53.174 17.48L50.742 35.144H30.39L32.95 16.456C33.1207 15.432 33.1207 14.664 32.95 14.152C32.8647 13.5547 32.694 13.1707 32.438 13C32.182 12.744 31.8407 12.616 31.414 12.616C30.9873 12.616 30.6033 12.744 30.262 13C29.9207 13.1707 29.622 13.5547 29.366 14.152C29.1953 14.664 29.0247 15.432 28.854 16.456L22.326 62.92C22.2407 63.8587 22.2407 64.6267 22.326 65.224C22.4113 65.8213 22.582 66.248 22.838 66.504C23.094 66.6747 23.4353 66.76 23.862 66.76C24.2887 66.76 24.63 66.6747 24.886 66.504C25.2273 66.248 25.526 65.8213 25.782 65.224C26.1233 64.6267 26.3367 63.8587 26.422 62.92L28.982 45.256H49.334L47.926 54.728C46.9873 61.5547 45.366 66.6747 43.062 70.088C40.8433 73.5013 37.9847 75.7627 34.486 76.872C30.9873 77.9813 26.8913 78.536 22.198 78.536ZM52.98 77L63.732 1.352H83.828L75.124 63.176H89.076L87.028 77H52.98ZM93.915 77L104.667 1.352H125.019L114.267 77H93.915ZM123.35 77L134.102 1.352H151.766L155.99 36.552L160.982 1.352H178.774L168.022 77H150.486L145.622 45.64L141.142 77H123.35ZM185.864 77L194.568 15.56H183.688L185.736 1.352H227.848L225.8 15.56H214.92L206.216 77H185.864Z" fill="white"/>
<path d="M238.178 78.408C235.533 78.408 233.229 77.512 231.266 75.72C229.389 73.8427 228.45 71.624 228.45 69.064C228.45 66.4187 229.389 64.2 231.266 62.408C233.229 60.5307 235.533 59.592 238.178 59.592C240.909 59.592 243.255 60.5307 245.218 62.408C247.181 64.2 248.162 66.4187 248.162 69.064C248.162 71.624 247.181 73.8427 245.218 75.72C243.255 77.512 240.909 78.408 238.178 78.408Z" fill="#9EC0BB"/>
</svg>
